<mxfile host="app.diagrams.net" modified="2023-06-20T10:57:09.080Z" agent="5.0 (Macintosh; Intel Mac OS X 10_15_7) AppleWebKit/537.36 (KHTML, like Gecko) Chrome/114.0.0.0 Safari/537.36" etag="ivUxphZ8bhIrK-7cFXT9" version="20.8.20" type="github">
  <diagram name="Page-1" id="lNGS0ab_kjIJHxHfO-uE">
    <mxGraphModel dx="1434" dy="796" grid="0" gridSize="10" guides="1" tooltips="1" connect="1" arrows="1" fold="1" page="1" pageScale="1" pageWidth="827" pageHeight="1169" math="0" shadow="0">
      <root>
        <mxCell id="0" />
        <mxCell id="1" parent="0" />
        <mxCell id="sQp2vgQx7z1JLQqpXMlx-12" style="edgeStyle=orthogonalEdgeStyle;rounded=0;orthogonalLoop=1;jettySize=auto;html=1;entryX=0.521;entryY=0.033;entryDx=0;entryDy=0;entryPerimeter=0;" edge="1" parent="1" source="sQp2vgQx7z1JLQqpXMlx-1" target="sQp2vgQx7z1JLQqpXMlx-13">
          <mxGeometry relative="1" as="geometry">
            <mxPoint x="394.5" y="411" as="targetPoint" />
          </mxGeometry>
        </mxCell>
        <mxCell id="sQp2vgQx7z1JLQqpXMlx-1" value="LookupDataSource(DatasourceRegister)" style="rounded=1;whiteSpace=wrap;html=1;" vertex="1" parent="1">
          <mxGeometry x="271" y="218" width="247" height="60" as="geometry" />
        </mxCell>
        <mxCell id="sQp2vgQx7z1JLQqpXMlx-9" style="edgeStyle=orthogonalEdgeStyle;rounded=0;orthogonalLoop=1;jettySize=auto;html=1;entryX=0;entryY=0.5;entryDx=0;entryDy=0;" edge="1" parent="1" source="sQp2vgQx7z1JLQqpXMlx-2" target="sQp2vgQx7z1JLQqpXMlx-1">
          <mxGeometry relative="1" as="geometry">
            <Array as="points">
              <mxPoint x="212" y="248" />
            </Array>
          </mxGeometry>
        </mxCell>
        <mxCell id="sQp2vgQx7z1JLQqpXMlx-2" value="Actor" style="shape=umlActor;verticalLabelPosition=bottom;verticalAlign=top;html=1;outlineConnect=0;" vertex="1" parent="1">
          <mxGeometry x="197" y="74" width="30" height="60" as="geometry" />
        </mxCell>
        <mxCell id="sQp2vgQx7z1JLQqpXMlx-7" value="" style="edgeStyle=orthogonalEdgeStyle;rounded=0;orthogonalLoop=1;jettySize=auto;html=1;" edge="1" parent="1" source="sQp2vgQx7z1JLQqpXMlx-3" target="sQp2vgQx7z1JLQqpXMlx-1">
          <mxGeometry relative="1" as="geometry">
            <Array as="points">
              <mxPoint x="380" y="193" />
              <mxPoint x="380" y="193" />
            </Array>
          </mxGeometry>
        </mxCell>
        <mxCell id="sQp2vgQx7z1JLQqpXMlx-3" value="Actor" style="shape=umlActor;verticalLabelPosition=bottom;verticalAlign=top;html=1;outlineConnect=0;" vertex="1" parent="1">
          <mxGeometry x="365" y="74" width="30" height="60" as="geometry" />
        </mxCell>
        <mxCell id="sQp2vgQx7z1JLQqpXMlx-10" style="edgeStyle=orthogonalEdgeStyle;rounded=0;orthogonalLoop=1;jettySize=auto;html=1;entryX=1;entryY=0.5;entryDx=0;entryDy=0;" edge="1" parent="1">
          <mxGeometry relative="1" as="geometry">
            <mxPoint x="539" y="134" as="sourcePoint" />
            <mxPoint x="518" y="248" as="targetPoint" />
            <Array as="points">
              <mxPoint x="539" y="176" />
              <mxPoint x="538" y="176" />
              <mxPoint x="538" y="248" />
            </Array>
          </mxGeometry>
        </mxCell>
        <mxCell id="sQp2vgQx7z1JLQqpXMlx-4" value="Actor" style="shape=umlActor;verticalLabelPosition=bottom;verticalAlign=top;html=1;outlineConnect=0;" vertex="1" parent="1">
          <mxGeometry x="521" y="74" width="30" height="60" as="geometry" />
        </mxCell>
        <mxCell id="sQp2vgQx7z1JLQqpXMlx-6" value="Create xxx using" style="text;html=1;align=center;verticalAlign=middle;resizable=0;points=[];autosize=1;strokeColor=none;fillColor=none;" vertex="1" parent="1">
          <mxGeometry x="157" y="50" width="107" height="26" as="geometry" />
        </mxCell>
        <mxCell id="sQp2vgQx7z1JLQqpXMlx-8" value="select xxx from x" style="text;html=1;align=center;verticalAlign=middle;resizable=0;points=[];autosize=1;strokeColor=none;fillColor=none;" vertex="1" parent="1">
          <mxGeometry x="322" y="48" width="107" height="26" as="geometry" />
        </mxCell>
        <mxCell id="sQp2vgQx7z1JLQqpXMlx-11" value="Dataframe api" style="text;html=1;strokeColor=none;fillColor=none;align=center;verticalAlign=middle;whiteSpace=wrap;rounded=0;" vertex="1" parent="1">
          <mxGeometry x="481" y="48" width="106" height="30" as="geometry" />
        </mxCell>
        <mxCell id="sQp2vgQx7z1JLQqpXMlx-14" style="edgeStyle=orthogonalEdgeStyle;rounded=0;orthogonalLoop=1;jettySize=auto;html=1;entryX=0.5;entryY=0;entryDx=0;entryDy=0;" edge="1" parent="1" source="sQp2vgQx7z1JLQqpXMlx-13" target="sQp2vgQx7z1JLQqpXMlx-15">
          <mxGeometry relative="1" as="geometry">
            <mxPoint x="390" y="618" as="targetPoint" />
          </mxGeometry>
        </mxCell>
        <mxCell id="sQp2vgQx7z1JLQqpXMlx-13" value="CreateRelation/StreamSource/StreamSink" style="rounded=1;whiteSpace=wrap;html=1;" vertex="1" parent="1">
          <mxGeometry x="256" y="323" width="265" height="91" as="geometry" />
        </mxCell>
        <mxCell id="sQp2vgQx7z1JLQqpXMlx-15" value="Scan/Source/Sink" style="rounded=1;whiteSpace=wrap;html=1;" vertex="1" parent="1">
          <mxGeometry x="328.5" y="476" width="120" height="60" as="geometry" />
        </mxCell>
      </root>
    </mxGraphModel>
  </diagram>
</mxfile>
